<svg width="140" height="140" viewBox="0 0 140 140" fill="none" xmlns="http://www.w3.org/2000/svg">
<path d="M101.331 122.843C87.2515 122.843 80.2115 112.559 80.2115 91.9904V86.0575C80.2115 81.496 83.9094 77.7981 88.471 77.7981V77.7981C90.9401 77.7981 93.2797 78.9027 94.8486 80.8092L95.1926 81.2273C96.5782 82.9109 97.3357 85.0237 97.3357 87.2042V95.8984C97.3357 98.2295 97.6528 100.058 98.2871 101.383C98.9213 102.709 99.936 103.372 101.331 103.372C103.805 103.372 105.042 100.698 105.042 95.3499C105.042 90.8705 104.392 87.5338 103.091 85.3399C101.791 83.1002 100.206 80.9519 98.3346 78.8951L89.2493 68.8165C86.3953 65.6169 84.223 62.2345 82.7326 58.6693C81.2422 55.1041 80.497 50.1448 80.497 43.7914C80.497 37.8951 81.4641 33.0272 83.3985 29.1878C85.3647 25.3483 87.9491 22.4916 91.152 20.6176C94.3865 18.7435 97.8748 17.8065 101.617 17.8065C115.443 17.8065 122.356 27.748 122.356 47.6309V53.9656C122.356 57.0935 119.82 59.6292 116.692 59.6292V59.6292C115.131 59.6292 113.639 58.9848 112.569 57.8481L106.17 51.0517C105.262 50.0875 104.756 48.8132 104.756 47.4889V45.6426C104.756 43.5857 104.502 41.5975 103.995 39.6777C103.519 37.758 102.568 36.7981 101.141 36.7981C98.731 36.7981 97.526 38.6264 97.526 42.2831C97.526 45.9854 98.5407 48.8879 100.57 50.9904L111.13 62.0974C114.428 65.5255 117.187 69.5935 119.407 74.3014C121.658 79.0093 122.784 85.2713 122.784 93.0873C122.784 102.777 120.866 110.159 117.029 115.233C113.223 120.306 107.991 122.843 101.331 122.843Z" fill="url(#paint0_linear_267_86)"/>
<path d="M69.9772 122.843C55.8974 122.843 48.8574 112.559 48.8574 91.9904V86.0575C48.8574 81.496 52.5553 77.7981 57.1169 77.7981V77.7981C59.586 77.7981 61.9301 78.9083 63.4991 80.8148V80.8148V80.8148C65.1041 82.7651 65.9816 85.2125 65.9816 87.7384V95.8984C65.9816 98.2295 66.2987 100.058 66.9329 101.383C67.5672 102.709 68.5819 103.372 69.9772 103.372C72.4507 103.372 73.6875 100.698 73.6875 95.3499C73.6875 90.8705 73.0374 87.5338 71.7372 85.3399C70.437 83.1002 68.8515 80.9519 66.9805 78.8951L57.8952 68.8165C55.0411 65.6169 52.8689 62.2345 51.3785 58.6693C49.888 55.1041 49.1428 50.1448 49.1428 43.7914C49.1428 37.8951 50.11 33.0272 52.0444 29.1878C54.0105 25.3483 56.595 22.4916 59.7979 20.6176C63.0324 18.7435 66.5207 17.8065 70.2626 17.8065C84.0888 17.8065 91.0019 27.748 91.0019 47.6309V53.9656C91.0019 57.0935 88.4662 59.6292 85.3383 59.6292V59.6292C83.7771 59.6292 82.2851 58.9848 81.2149 57.8481L76.0811 52.3959C74.3603 50.5683 73.4021 48.1528 73.4021 45.6426V45.6426C73.4021 43.5857 73.1484 41.5975 72.641 39.6777C72.1653 37.758 71.214 36.7981 69.787 36.7981C67.3769 36.7981 66.1719 38.6264 66.1719 42.2831C66.1719 45.9854 67.1866 48.8879 69.2161 50.9904L79.776 62.0974C83.074 65.5255 85.8329 69.5935 88.0527 74.3014C90.3042 79.0093 91.43 85.2713 91.43 93.0873C91.43 102.777 89.5115 110.159 85.6744 115.233C81.869 120.306 76.6366 122.843 69.9772 122.843Z" fill="url(#paint1_linear_267_86)"/>
<path d="M39.2886 122.843C31.2794 122.843 25.5904 119.895 22.2214 113.999C18.8843 108.102 17.2157 99.4407 17.2157 88.0138V56.3382C17.2157 47.7452 17.8513 40.5919 19.1226 34.8784C20.3939 29.1649 22.6187 24.8912 25.797 22.0573C28.9752 19.2235 33.393 17.8065 39.0502 17.8065C42.9913 17.8065 46.5191 18.8121 49.6338 20.8232C52.7802 22.8344 55.2593 25.7825 57.0709 29.6677C58.8825 33.5529 59.7883 38.3065 59.7883 43.9286V50.9288C59.7883 55.7339 55.8929 59.6292 51.0878 59.6292V59.6292C46.2827 59.6292 42.3874 55.7339 42.3874 50.9288V45.2312C42.3874 42.8544 42.149 40.8661 41.6723 39.2664C41.1955 37.6209 40.1626 36.7981 38.5735 36.7981C35.7766 36.7981 34.3782 39.6549 34.3782 45.3684V95.2128C34.3782 97.3153 34.696 99.2579 35.3317 101.041C35.9673 102.777 37.0162 103.646 38.4781 103.646C39.9719 103.646 41.0049 102.8 41.5769 101.109C42.1808 99.3722 42.4827 97.361 42.4827 95.0756V86.4508C42.4827 81.6721 46.3567 77.7981 51.1355 77.7981V77.7981C55.9143 77.7981 59.7883 81.6721 59.7883 86.4508V95.7613C59.7883 101.429 58.8984 106.297 57.1185 110.365C55.3705 114.387 52.955 117.472 49.8721 119.621C46.7893 121.769 43.2614 122.843 39.2886 122.843Z" fill="url(#paint2_linear_267_86)"/>
<defs>
<linearGradient id="paint0_linear_267_86" x1="122.784" y1="70.3248" x2="80.3006" y2="70.3248" gradientUnits="userSpaceOnUse">
<stop stop-color="#3E9AFF"/>
<stop offset="1" stop-color="#3178C6"/>
</linearGradient>
<linearGradient id="paint1_linear_267_86" x1="91.43" y1="70.3248" x2="48.9465" y2="70.3248" gradientUnits="userSpaceOnUse">
<stop stop-color="#3E9AFF"/>
<stop offset="1" stop-color="#3178C6"/>
</linearGradient>
<linearGradient id="paint2_linear_267_86" x1="59.7882" y1="70.3248" x2="17.3048" y2="70.3248" gradientUnits="userSpaceOnUse">
<stop stop-color="#3E9AFF"/>
<stop offset="1" stop-color="#3178C6"/>
</linearGradient>
</defs>
</svg>
